/* XPM */
static char *_fe3a8073f1d43e194d353d0e7112edc[] = {
/* columns rows colors chars-per-pixel */
"101 78 123 2 ",
"   c None",
".  c #1D1613",
"X  c #211714",
"o  c #251914",
"O  c #2C1C16",
"+  c #331E17",
"@  c #391F17",
"#  c #371E18",
"$  c #3A1F18",
"%  c #362118",
"&  c #3C2219",
"*  c #45251A",
"=  c #4C251B",
"-  c #4B281C",
";  c #54271D",
":  c #552A1D",
">  c #5B2A1E",
",  c #632C1F",
"<  c #6B2D1F",
"1  c #722E1F",
"2  c #64321F",
"3  c #6D311F",
"4  c #74301F",
"5  c #4D2A20",
"6  c #532B20",
"7  c #5C2B20",
"8  c #642C22",
"9  c #6B2E22",
"0  c #722D21",
"q  c #782F22",
"w  c #673022",
"e  c #6C3121",
"r  c #743223",
"t  c #7C3423",
"y  c #7B3824",
"u  c #83341F",
"i  c #833625",
"p  c #8B3525",
"a  c #823B26",
"s  c #8F3B27",
"d  c #9C3625",
"f  c #923B24",
"g  c #9C3E24",
"h  c #9D3E29",
"j  c #A33D25",
"k  c #B23E26",
"l  c #954027",
"z  c #984027",
"x  c #A74626",
"c  c #A44028",
"v  c #AD442B",
"b  c #B34327",
"n  c #BB4426",
"m  c #B64927",
"M  c #B64628",
"N  c #BC432A",
"B  c #B54828",
"V  c #C44226",
"C  c #CA432A",
"Z  c #C64B29",
"A  c #D0432A",
"S  c #DD472A",
"D  c #DE4A29",
"F  c #CF5327",
"G  c #DE5828",
"H  c #E04D2A",
"J  c #E94D28",
"K  c #F94624",
"L  c #F14E2A",
"P  c #F04E29",
"I  c #F64E2A",
"U  c #F04B29",
"Y  c #FA4B2A",
"T  c #FA4E29",
"R  c #F84D2A",
"E  c #FB4F2A",
"W  c #E75A27",
"Q  c #E8522D",
"!  c #EA562C",
"~  c #F65428",
"^  c #F75729",
"/  c #F6542B",
"(  c #F85229",
")  c #FC512A",
"_  c #FB552A",
"`  c #FC5429",
"'  c #FC552A",
"]  c #FC562A",
"[  c #F75829",
"{  c #FB582A",
"}  c #FA5A2A",
"|  c #FC582A",
" . c #FD582A",
".. c #FC592A",
"X. c #FD592A",
"o. c #FC5A2A",
"O. c #FD5A2A",
"+. c #F85C28",
"@. c #FA5C2A",
"#. c #F96028",
"$. c #FA602B",
"%. c #FA612B",
"&. c #FC612A",
"*. c #FB652A",
"=. c #FC652A",
"-. c #F5682C",
";. c #F6692C",
":. c #FC692A",
">. c #FC6A2B",
",. c #FD6F2A",
"<. c #FC6A2D",
"1. c #F96D2C",
"2. c #FB6E2C",
"3. c #FC6F2E",
"4. c #FD6F2E",
"5. c #FA7527",
"6. c #FD702A",
"7. c #FC732A",
"8. c #FD732A",
"9. c #FE732A",
"0. c #FD712D",
"q. c #FD722D",
"w. c #FC7E28",
/* pixels */
"                                                                                                                                                                                                          ",
"                                                                                                                                                                                                          ",
"                                                                                                                                                                                                          ",
"                                                                                                                                                                                                          ",
"                                                                                                                                                                                                          ",
"                                                                                                                                                                                                          ",
"                                                                                                                                                                                                          ",
"                                                                                                                                                                                                          ",
"                                                                                                                                                                                                          ",
"                                                                                                                                                                                                          ",
"                                                                                                                                                                                                          ",
"                                                                                                                                                                                                          ",
"                                                                                                                                                                                                          ",
"                                                                                                                                                                                                          ",
"                                                                                                                                                                                                          ",
"                                                                                                                                                                                                          ",
"                                                                                                                                                                                                          ",
"                                                                                                                                                                                                          ",
"                                                                                                                                                                                                          ",
"                                                                                                                                                                                                          ",
"                                                                                                                                                                                                          ",
"                                                                                                                                                                                                          ",
"                                                                                                                                                                                                          ",
"                                                                                                                                                                                                          ",
"                                                                                                                                                                                                          ",
"                                                                                                                                                                                                          ",
"                                                                                                                                                                                                          ",
"                                                                                                                                                                                                          ",
"                                                                                                                                                                                                          ",
"                                                                                                                8 8 e y i j n                                                                             ",
"                                                                                                              9 8 e i i j N C J ( ^                                                                       ",
"                                                                                                              w 9 y i j N A H @.*._ }                                                                     ",
"                                                                                                              , > t p b C S } =.>.8.8.....                                                                ",
"                                                                                                                > > t C S Y _ >.8.8.8.8.8.E I                                                             ",
"                                                                                                                  > , < k _ } ....8.8.,...E Z c                                                           ",
"                                                                                                                  p e < 1 u ` ........&.L L b z a                                                         ",
"                                                                                                                    r 8 4 < u K ` .._ ) U n l a t y                                                       ",
"                                                                                                                        ; , 1 3 g ` E D n h f a r w                                                       ",
"                                                                                                                      > : ; ; < < 1 V M h f i t 9 8                                                       ",
"                                                                                                                v e ; ; ; : r ; 9 , > i s i r e 8 7                                                       ",
"                                                                    Q -.2.q.3.q.<.%.[ Z                         r h > ; ; ;     r 9 > > 8 q 0 8 7 7                                                       ",
"                                                                  N ! -.2.3.3.<.>.%.^ B b                     w 7 8 9 8 ; ; ;         7 ; 8 8 7 7                                                         ",
"                                                                a x F W 5.w.@.@.G %.^ m j k                   7 7 7 7 : > > ;                                                                             ",
"                                                                8 9 t i f g j j g j s d r p                   2 : 7 7 7 ; ; >                                                                             ",
"                                                                : : > , 3 e e e w > > > > >                     : : : 6 7                                                                                 ",
"                                                                  9 8 9 0 0 r q 0 8 > > >                     = = = :                                                                                     ",
"                                                                          ; ; ; > > 9                         = = =                                                                                       ",
"                                                                          = = = = :                         & - * ;                                                                                       ",
"                                                                        = = = = = =                         * * @                                                                                         ",
"                                                                      r 9 0 9 9 9 9                       & & &                                                                                           ",
"                                                                        7 6 6 7                           @ * &                                                                                           ",
"                                                                          6 6 6                           & * %                                                                                           ",
"                                                                          6 6 5                         + % * $                                                                                           ",
"                                                                          - * * *                       O + &                                                                                             ",
"                                                                            % & *                       O + +                                                                                             ",
"                                                                            % % &                       % + +                                                                                             ",
"                                                                            O & #                       % + O                                                                                             ",
"                                                                            O % O                     O + O                                                                                               ",
"                                                                            O O O                     o o o                                                                                               ",
"                                                                              + + %                   o o o                                                                                               ",
"                                                                              O O +                   o O O                                                                                               ",
"                                                                              o o O                   o O o                                                                                               ",
"                                                                              o O o                   X o X                                                                                               ",
"                                                                                X o o                 X X X                                                                                               ",
"                                                                                X o o                 X o .                                                                                               ",
"                                                                                . o o                 . . .                                                                                               ",
"                                                                                . o X                 . . .                                                                                               ",
"                                                                                . . .                 . . .                                                                                               ",
"                                                                                  .                     . .                                                                                               ",
"                                                                                                        . .                                                                                               ",
"                                                                                                                                                                                                          ",
"                                                                                                                                                                                                          ",
"                                                                                                                                                                                                          ",
"                                                                                                                                                                                                          ",
"                                                                                                                                                                                                          ",
"                                                                                                                                                                                                          ",
"                                                                                                                                                                                                          ",
"                                                                                                                                                                                                          "
};
