/* XPM */
static char *img_right1711308657[] = {
/* columns rows colors chars-per-pixel */
"50 50 201 2 ",
"   c None",
".  c #010101",
"X  c #0B0302",
"o  c #0C0A06",
"O  c #0C0C0D",
"+  c #020E0B",
"@  c #120201",
"#  c #1C0101",
"$  c #130C07",
"%  c #1A0D04",
"&  c #130D0B",
"*  c #190C08",
"=  c #19120C",
"-  c #14100C",
";  c #0E0E10",
":  c #141415",
">  c #1B1512",
",  c #1F1913",
"<  c #1D1C1D",
"1  c #141819",
"2  c #081719",
"3  c #230201",
"4  c #2C0101",
"5  c #270B0A",
"6  c #340302",
"7  c #3D0303",
"8  c #360E09",
"9  c #241406",
"0  c #261708",
"q  c #261809",
"w  c #2C110D",
"e  c #30120B",
"r  c #221915",
"t  c #2C1D12",
"y  c #251C19",
"u  c #291F1A",
"i  c #201713",
"p  c #371F18",
"a  c #2C221C",
"s  c #2D271A",
"d  c #352316",
"f  c #32241C",
"g  c #39281E",
"h  c #181F20",
"j  c #201F20",
"k  c #192021",
"l  c #252527",
"z  c #2F2925",
"x  c #262629",
"c  c #2C2A2B",
"v  c #2E2720",
"b  c #352B24",
"n  c #302A28",
"m  c #34302D",
"M  c #3A322A",
"N  c #303222",
"B  c #323334",
"V  c #3A3434",
"C  c #343639",
"Z  c #363A3D",
"A  c #3A3A3C",
"S  c #393738",
"D  c #440503",
"F  c #4A0403",
"G  c #4E0906",
"H  c #430A07",
"J  c #530A06",
"K  c #540B08",
"L  c #5D0D0A",
"P  c #580706",
"I  c #471B13",
"U  c #660A07",
"Y  c #650D09",
"T  c #680A08",
"R  c #7D0E0B",
"E  c #6B110E",
"W  c #66110D",
"Q  c #73130F",
"!  c #7B120D",
"~  c #761511",
"^  c #7B1612",
"/  c #7E1917",
"(  c #55261E",
")  c #45311F",
"_  c #4D3116",
"`  c #54371D",
"'  c #692219",
"]  c #422821",
"[  c #453223",
"{  c #4D3524",
"}  c #41362E",
"|  c #47392C",
" . c #513722",
".. c #533923",
"X. c #5D3F24",
"o. c #453B31",
"O. c #473D37",
"+. c #542724",
"@. c #632221",
"#. c #57412B",
"$. c #494039",
"%. c #55463A",
"&. c #564A3D",
"*. c #58493B",
"=. c #644224",
"-. c #694625",
";. c #6E4925",
":. c #674528",
">. c #764E2A",
",. c #784F2A",
"<. c #614935",
"1. c #655039",
"2. c #3C3E42",
"3. c #3E4146",
"4. c #414243",
"5. c #5C5345",
"6. c #4D5757",
"7. c #635447",
"8. c #6C5D4C",
"9. c #6F5D46",
"0. c #6E5F50",
"q. c #786048",
"w. c #6D6454",
"e. c #7A6657",
"r. c #776858",
"t. c #786C60",
"y. c #810E08",
"u. c #85160F",
"i. c #861611",
"p. c #8A1712",
"a. c #861914",
"s. c #8C1913",
"d. c #921A15",
"f. c #9A1B15",
"g. c #9B1D18",
"h. c #9C1712",
"j. c #A61A15",
"k. c #A51F19",
"l. c #A81F19",
"z. c #AE2019",
"x. c #A6211A",
"c. c #B3211A",
"v. c #BC231B",
"b. c #BC342B",
"n. c #B63933",
"m. c #C2241C",
"M. c #CC271E",
"N. c #C93530",
"B. c #8E4D38",
"V. c #80513E",
"C. c #984A33",
"Z. c #A34D3E",
"A. c #B84233",
"S. c #964443",
"D. c #955D4C",
"F. c #AE5D4C",
"G. c #83705C",
"H. c #937959",
"J. c #897866",
"K. c #927D69",
"L. c #E24F4D",
"P. c #D16C6B",
"I. c #C97360",
"U. c #9F815F",
"Y. c #8E836D",
"T. c #96816D",
"R. c #9D8771",
"E. c #9E8973",
"W. c #8A8A75",
"Q. c #A38D76",
"!. c #AE8876",
"~. c #B48C75",
"^. c #AC947C",
"/. c #AF9177",
"(. c #B69376",
"). c #C0836C",
"_. c #C28F74",
"`. c #C29E7B",
"'. c #C3A17F",
"]. c #B49B82",
"[. c #BCA086",
"{. c #BBA389",
"}. c #BFAA8F",
"|. c #BDB6B8",
" X c #DE8888",
".X c #C49A84",
"XX c #F68482",
"oX c #C2A589",
"OX c #C1A98E",
"+X c #CCA28A",
"@X c #CAAE91",
"#X c #C7AE93",
"$X c #CCB295",
"%X c #C5B499",
"&X c #D5BA9C",
"*X c #D8BA9D",
"=X c #D1B497",
"-X c #D8BDA0",
";X c #E7B1AB",
":X c #E4C8A8",
">X c #DEDDD2",
/* pixels */
"                                            . . . X . . . .                                         ",
"                                          . 4 P J G G J P 6 .                                       ",
"                                      X @ 3 ! v.c.l.z.z.v.i.3 .                                     ",
"                                    X L p.p.l.v.v.v.v.v.v.c.u.7 .                                   ",
"                                    . i.M.v.c.z.c.l.l.c.c.M.m.J .                                   ",
"                                    # p.v.v.c.l.l.c.v.c.j.j.h.J .                                   ",
"                                . 4 ! k.c.c.z.z.c.v.m.c.T 4 4 U Y @                                 ",
"                                . D c.m.c.z.z.v.c.p.! U I N s ' E @                                 ",
"                                . P c.v.z.z.z.v.h.D @ X <.H.H...X .                                 ",
"                              X G d.z.l.f.k.l.y.6 # ] 5.V.C.B.p . .                                 ",
"                              @ i.v.k.d.d.s.^ +.O.@.Z..X].S.a.6 . .                                 ",
"                              @ ^ k.f.d.g.R 4 6.|.P.A.+X>X;Xn.D . .                                 ",
"                              . W g.d.d.x.y.. V  XL.A..X;XXXN.D . .                                 ",
"                            . 4 ^ f.s.s.p.E e ( n.b.F.(.I.b.p.7 . .                                 ",
"                          . 6 Q d.i.^ ! D 5 8.!.).).~./._.D.8 6 D .                                 ",
"                          . G g.d.~ Q W # o Y.:X%X%X{.].=XW.+ 4 L @                                 ",
"                          . H s.^ E Q Q 4 X w.}.$X$X$X#X}.r.* 7 K X                                 ",
"                          . 6 ~ ~ E E Q 7 . : 8.OX&X&X#Xw.a H Y P X                                 ",
"                          . 6 E ~ E Q ~ D . = | w.r.r.0.p 4 U a.K X .                               ",
"                          . 4 W Q E ~ E 4 * 9.q., $ - % 7 L Q ~ G X                                 ",
"                            X 6 L ^ W 7 X m E.^.1.#.*.#.e 6 T J #                                   ",
"                              X K E D X 2 4.J.].'.`.'.(.8.g H 3 .                                   ",
"                              X K D X h C C 2.r.[.=X#X@X].e.* .                                     ",
"                              . 3 5 h 2.B : 1 B r.(.-X=X^.5..                                       ",
"                                . : 2.C 1 X & > a e.].Q.5.* . .                                     ",
"                                . 1 B 1 . * y , r b O.o.u i : X .                                   ",
"                                . . 1 . X y u y y > & & r u u o .                                   ",
"                                O y y . . y u y y y y y u j y X .                                   ",
"                              & 8.R.0.= . r u y u f g g f a y X . .                                 ",
"                              $ E.:XQ.a . o a a f ) X. .t & & M b .                                 ",
"                            . s R.$XH., . . t [ ` X.>.-.q . . w.T.s .                               ",
"                          . M J.^.G.v   . . t ..:.-.,.-.0 . . 8.[.T.M .                             ",
"                          X 7.$X[.%..     . t  .=.;.>.-.0 . . %.[.$X7.X                             ",
"                          X 7.$XoX&..     . t [  .#.>.-.0 . . *.oX$X7.X                             ",
"                          X 7.&X&X8..     . t { X.-.>.=.0 . . 8.&X&X5.X                             ",
"                          . o.E.Q.%..     X d ` =.;.,.-.0 . . %.Q.R.$..                             ",
"                            o > , X   . $ f ) ) ` #.>.:.0 .   o , > X                               ",
"                              . .     . * } o.m M ` =.` % .     . .                                 ",
"                                      . O C 2.2.S } { [ = .                                         ",
"                                      . ; C 2.A Z S C V B < .                                       ",
"                                      O x C B l < l B A 4.c .                                       ",
"                                    . x 2.Z z & . & c A 3.x .                                       ",
"                                    . c 3.C c o . o z S 2.x .                                       ",
"                                    . y O.o.u X . X < m $.n .                                       ",
"                                    . : { X.9 .   . . a X.` X                                       ",
"                                    . &  .=.9 .   . . , X.;._ %                                     ",
"                                    . = {  .* .   . . y { -.#.q .                                   ",
"                                    . : f u X .   . . r a g f o .                                   ",
"                                    . X o . . .   . . X X + X . .                                   ",
"                                    . . . . . .   . . . . . . . .                                   "
};
