/* XPM */
static char *img_back1711308657[] = {
/* columns rows colors chars-per-pixel */
"50 50 119 2 ",
"   c None",
".  c #020101",
"X  c #0C0302",
"o  c #0E0B06",
"O  c #050609",
"+  c #070909",
"@  c #0A0C0D",
"#  c #130201",
"$  c #1D0201",
"%  c #120D06",
"&  c #1A0D04",
"*  c #140E0B",
"=  c #1B1006",
"-  c #15110C",
";  c #1B130D",
":  c #161110",
">  c #1D1613",
",  c #1B1A13",
"<  c #1A1718",
"1  c #240201",
"2  c #2D0303",
"3  c #340503",
"4  c #3D0604",
"5  c #22140A",
"6  c #201713",
"7  c #231B15",
"8  c #241D1A",
"9  c #3A240E",
"0  c #2F2015",
"q  c #29201C",
"w  c #342316",
"e  c #392513",
"r  c #3D2917",
"t  c #382719",
"y  c #3E2B1C",
"u  c #272929",
"i  c #29292B",
"p  c #362C23",
"a  c #302A28",
"s  c #3C342A",
"d  c #2E2E30",
"f  c #3A3736",
"g  c #36373B",
"h  c #393738",
"j  c #393A3B",
"k  c #440605",
"l  c #4A0705",
"z  c #4F0905",
"x  c #530A06",
"c  c #530B08",
"v  c #5B0D0A",
"b  c #66110D",
"n  c #6C120E",
"m  c #72130F",
"M  c #7C140F",
"N  c #751411",
"B  c #7A1611",
"V  c #412C1C",
"C  c #45311E",
"Z  c #4D331C",
"A  c #55371E",
"S  c #56391D",
"D  c #5B3C1F",
"F  c #463222",
"G  c #4B3522",
"H  c #43342B",
"J  c #4F3F2F",
"K  c #503620",
"L  c #533A23",
"P  c #5B3D23",
"I  c #463D31",
"U  c #5E4126",
"Y  c #4F4237",
"T  c #43403F",
"R  c #544335",
"E  c #55493C",
"W  c #5E4D3D",
"Q  c #634326",
"!  c #694625",
"~  c #6D4926",
"^  c #6E4A29",
"/  c #704B27",
"(  c #734D28",
")  c #77502E",
"_  c #665546",
"`  c #6D5F4F",
"'  c #776352",
"]  c #796553",
"[  c #7E6957",
"{  c #831712",
"}  c #8D1711",
"|  c #841813",
" . c #8D1915",
".. c #921A15",
"X. c #9B1C16",
"o. c #9C1D18",
"O. c #A21C16",
"+. c #A31E18",
"@. c #AB1F18",
"#. c #AD2017",
"$. c #AE2019",
"%. c #B22019",
"&. c #BC231B",
"*. c #C4251C",
"=. c #86592F",
"-. c #87725E",
";. c #89745F",
":. c #877662",
">. c #887561",
",. c #8B7D68",
"<. c #9B826A",
"1. c #9E8A74",
"2. c #A58E77",
"3. c #AF977F",
"4. c #B79B81",
"5. c #C1A98E",
"6. c #CCB397",
"7. c #F5D5B4",
"8. c #F8D8B6",
/* pixels */
"                                          . . . . X . . . X .                                       ",
"                                          1 x x x l z x x x 2                                       ",
"                                    . # $ n %.%.@.@.@.$.%.%.M $                                     ",
"                                  . x } { O.*.&.&.&.&.&.*.*.%.M 2 .                                 ",
"                                  . m *.*.%.%.@.$.$.%.$.O.+.%.+.3 .                                 ",
"                                  # M &.&.%.@.%.%.%.$.+.....o...k .                                 ",
"                                1 m O.%.%.#.#.%.%.$.o... . .....m k .                               ",
"                              . 4 @.*.#.%.%.%.@.+.+.X. .........+.m #                               ",
"                              . l @.&.#.@.%.@...................o.m .                               ",
"                            . l } @.#.X.X.X.X... ..... ... .....o.b .                               ",
"                            # M &.@.X. .........................o.N 2 .                             ",
"                            X m +.X... ...........................X.B 3 .                           ",
"                            . b o... .............................#.o.k .                           ",
"                          . 1 m o............................. . ...| 4 .                           ",
"                        . 3 m ..............................| B m B m 3 .                           ",
"                        . k X.o................. .{ { { { { B n n n n 2 .                           ",
"                        . k ..o....... . . . . .B m n n m n n n n m n 2 .                           ",
"                        . k ..o.....{ N N N B B N b b n b b n n n m n 2 .                           ",
"                        . k ....| { N b b b n b n n n n n n n n n N n 2 .                           ",
"                        . k | { n n n n n n n n n n n n n n n n n m n 2 .                           ",
"                        . 4 B B b n m n n n n n n n n n n n n n n m m 3 .                           ",
"                        . $ c n N N n n n n n n n n n N N N N N N n c 1 .                           ",
"                          . # c m n n n m n n n n n n n b n n n n x # .                             ",
"                            . $ 2 3 v B N N N N N B N x 2 2 1 $ 2 $ .                               ",
"                              . . . 3 v c x z z x x x 3 . . + > . .                                 ",
"                              . . + X X X X X X X X X ; 5 . s ,.I .                                 ",
"                              . > Y , . X o % % o o o 0 e . E 6.4.I X                               ",
"                              o W -.p . t G y y V Z F G w . I 6.8.1.-                               ",
"                            o ` 2.-.q % A U F C P Q L G w . s 5.7.2.; .                             ",
"                            - :.4.' ; # A Q L L P L G G r X 7 ` :.E +                               ",
"                            X _ <.] 7 . w P ^ ! P Z C F w o . . . .                                 ",
"                            + W <.[ q . X Z ( ( ! U G 0 o .                                         ",
"                            . s _ R ; . . e / ( ! Q G ; .                                           ",
"                              . + .     . 9 / ( P G G 5 .                                           ",
"                                        . 9 ( ( P V V 5 .                                           ",
"                                        + e ! ! L H H 8 O                                           ",
"                                    . O u H Z G H f f f i + .                                       ",
"                                    . @ g T s p H R R W J % .                                       ",
"                                    . O d j i 7 r Q ! ^ D & .                                       ",
"                                    . O 8 a < O 5 A L P V & .                                       ",
"                                    . X , q * . - F G G y o .                                       ",
"                                    . . > q * . % y V V w X .                                       ",
"                                    . . > u * . . # o X X . .                                       ",
"                                    . X t G 0 . . . . . . .                                         ",
"                                    . & D ) Z X .                                                   ",
"                                    . = ! =.S X                                                     ",
"                                    . & U ) Z X .                                                   ",
"                                    . o y L w . .                                                   ",
"                                    . . % ; o . .                                                   ",
"                                    . . . . . .                                                     "
};
