/* XPM */
static char *img_p_p1711308368[] = {
/* columns rows colors chars-per-pixel */
"50 50 201 2 ",
"   c None",
".  c #020101",
"X  c #0B0503",
"o  c #0C0A06",
"O  c #07070A",
"+  c #060909",
"@  c #0D0A08",
"#  c #130101",
"$  c #1E0101",
"%  c #140C06",
"&  c #1A0D06",
"*  c #130D09",
"=  c #190E08",
"-  c #1A1109",
";  c #14100D",
":  c #0E1213",
">  c #0A191D",
",  c #1A1310",
"<  c #1A1A1C",
"1  c #191715",
"2  c #230201",
"3  c #2D0302",
"4  c #280A08",
"5  c #330402",
"6  c #3D0402",
"7  c #390905",
"8  c #26150A",
"9  c #25180E",
"0  c #2B180E",
"q  c #231A16",
"w  c #241D1A",
"e  c #291F19",
"r  c #2A1C14",
"t  c #3C130D",
"y  c #33210F",
"u  c #27211D",
"i  c #2C251C",
"p  c #312113",
"a  c #33271D",
"s  c #392A1E",
"d  c #3B2518",
"f  c #1E2022",
"g  c #152123",
"h  c #212427",
"j  c #232A29",
"k  c #372821",
"l  c #392D24",
"z  c #322C2B",
"x  c #3A3127",
"c  c #3B322B",
"v  c #363626",
"b  c #2C2D30",
"n  c #303335",
"m  c #383535",
"M  c #333638",
"N  c #373A3D",
"B  c #393A3C",
"V  c #2A342A",
"C  c #440605",
"Z  c #4C0503",
"A  c #4E0905",
"S  c #450E0A",
"D  c #540605",
"F  c #530A06",
"G  c #570C0A",
"H  c #5B0C09",
"J  c #590905",
"K  c #52120E",
"L  c #630A07",
"P  c #620D0A",
"I  c #6B0D0B",
"U  c #760A07",
"Y  c #6C120E",
"T  c #63100C",
"R  c #73130F",
"E  c #7D140E",
"W  c #731411",
"Q  c #7B1712",
"!  c #661F18",
"~  c #432A14",
"^  c #482E18",
"/  c #43291C",
"(  c #46311F",
")  c #49321F",
"_  c #4A3422",
"`  c #42362D",
"'  c #463929",
"]  c #513722",
"[  c #533923",
"{  c #5A3E25",
"}  c #413833",
"|  c #4C3F36",
" . c #563F32",
".. c #4C4239",
"X. c #514232",
"o. c #50473B",
"O. c #564939",
"+. c #5B4C3A",
"@. c #5F563F",
"#. c #644325",
"$. c #6A4626",
"%. c #6F4A27",
"&. c #68472C",
"*. c #6F4A28",
"=. c #624329",
"-. c #714C27",
";. c #734D2A",
":. c #674A33",
">. c #3A3D40",
",. c #3D4145",
"<. c #564E47",
"1. c #56534A",
"2. c #5C5754",
"3. c #615244",
"4. c #695A4B",
"5. c #755D44",
"6. c #69624D",
"7. c #766554",
"8. c #796858",
"9. c #746A54",
"0. c #7B7762",
"q. c #84130F",
"w. c #851611",
"e. c #8E1611",
"r. c #8B1914",
"t. c #911A15",
"y. c #9B1D18",
"u. c #9A1B17",
"i. c #A31C15",
"p. c #A41E19",
"a. c #AD1F18",
"s. c #A91C16",
"d. c #A6201A",
"f. c #AD2019",
"g. c #AD2017",
"h. c #B3211A",
"j. c #BC231B",
"k. c #822125",
"l. c #8F3327",
"z. c #B53C30",
"x. c #B03429",
"c. c #C4251C",
"v. c #C33B2E",
"b. c #894430",
"n. c #84503C",
"m. c #954935",
"M. c #AD4E3F",
"N. c #C44B3F",
"B. c #9E5F59",
"V. c #B35041",
"C. c #81684D",
"Z. c #806C56",
"A. c #987959",
"S. c #897662",
"D. c #887A66",
"F. c #877461",
"G. c #947E66",
"H. c #927D69",
"J. c #AF7661",
"K. c #B77E6A",
"L. c #D04648",
"P. c #CC6769",
"I. c #96826E",
"U. c #98846F",
"Y. c #928170",
"T. c #9B8670",
"R. c #9C8B7A",
"E. c #AB8464",
"W. c #A78F79",
"Q. c #AC8F74",
"!. c #B88D75",
"~. c #AC9276",
"^. c #AE967D",
"/. c #B1967B",
"(. c #B4997D",
"). c #B99179",
"_. c #BA8362",
"`. c #C58C71",
"'. c #CA8A74",
"]. c #C1917A",
"[. c #C2A57E",
"{. c #B69D84",
"}. c #BB9E81",
"|. c #BEAB8F",
" X c #B7A388",
".X c #BEB18D",
"XX c #BEB598",
"oX c #C0A588",
"OX c #C6AB8E",
"+X c #C5AC90",
"@X c #CAAF92",
"#X c #CBB194",
"$X c #C7B094",
"%X c #D3B69A",
"&X c #DCBE9F",
"*X c #F4A29E",
"=X c #DEC5A7",
"-X c #DFCCB8",
";X c #E5C6A6",
":X c #E7C6AD",
">X c #E9CECB",
/* pixels */
"                                          . . . . X . . . X .                                       ",
"                                          3 F F A D A A F F 3                                       ",
"                                    . # # I h.h.a.a.a.g.h.h.E $                                     ",
"                                  . F w.w.i.j.j.j.j.j.j.c.j.h.E 3 .                                 ",
"                                  . R c.c.h.h.a.s.h.j.h.f.p.j.p.5 .                                 ",
"                                  # E j.j.f.h.h.h.h.i.e.q.r.p.r.C .                                 ",
"                                3 Y i.h.h.f.f.c.c.s.D 2 3 R d.t.R C X                               ",
"                              . 6 g.c.f.h.j.s.U U L d v a S I u.a.R X                               ",
"                              . Z a.j.f.h.h.w.4 # 8 5.E.C.p 5 q.p.Y X                               ",
"                            . Z e.a.a.p.p.L t ' @.+.n.m.b.:.' 7 L H .                               ",
"                            # q.j.a.u.r.I 5 d A.[.E.l.k.B.!.6.X 5 H 2 .                             ",
"                            X R d.y.u.P 2 D x._.+X`.z.P.>X-X9.X 3 W P 2 .                           ",
"                            . T y.y.d.D . Z v.`.$X].z.L.*X:X0.O 3 Q Q 5 .                           ",
"                          . 2 R y.r.w.K 9 ! V.].XX!.M.x.N._.4.& 5 Q R 3 .                           ",
"                        . 3 W t.t.I 5 k S.).!.~.W.~.!.'.J.X.0 A T R Y 3 .                           ",
"                        . Z y.t.w.D . V |.;XOX/.Q./.|.=X Xh . H Q W Y 3 .                           ",
"                        . C r.Q R H # a U.#X#X@X+X@X+X$XI.i $ P W W Y 5 .                           ",
"                        . 5 W R Y Y H 7 k D.%X%X#X%X%XD.k 7 H Y Y R Y 3 .                           ",
"                        . 3 Y R W R J 6 r o.7.8.7.8.7.o.r 5 J R W W Y 3 .                           ",
"                        . 3 Y R R H $ l Z.O.% % @ * * O.Z.l $ J R W Y 3 .                           ",
"                        . 5 W Q A 2 O 1.{.H.| | X.X.X.G.{.1.O 2 F R W 5 .                           ",
"                        . 2 G R 6 . > 2.R. X}.{.(.(.}. XR.2.> . 6 R G 2 .                           ",
"                          . # G 6 . g >.<.H.+X#X@X@XOXH.<.>.g . C G # .                             ",
"                            . $ 4 w M j : c D.+X&X@XS.m : j M f 4 2 .                               ",
"                              . : N N < . . ` H.{.H.` X . < B B : .                                 ",
"                              . : M < . O * q ` | ` w * O . < n : .                                 ",
"                              . . 1 . . * w q , * , q w * . . 1 . .                                 ",
"                              o w w X . * w w r w w q q ; . . w q @                                 ",
"                            o 4.T.7.q . , w e s s s e w , . q 7.T.4.o                               ",
"                            X I.;X^.l . X q s _ { _ s q O . l /.;XI.X                               ",
"                          . u I.#XH.i . . 9 ] $.-.$.] 9 . . a H.#XI.u .                             ",
"                        . x S.^.F.l X . . y $.;.-.;.$.y . . X l F.^.S.x .                           ",
"                        X 3.#XoX+..     . p #.$.-.%.#.y .     . +.oX@X3..                           ",
"                        X 1.#XOX3..     . 8 { $.-.$.{ 8 .     . <.OX#X3.X                           ",
"                        X 3.%X&X7..     . 0 #.-.%.-.#.0 .     . 7.&X%X3.X                           ",
"                        . ` U.~.<..     X d $.-.%.-.$.d X     . <.W.T.' .                           ",
"                          X 1 1 @   . X p ) [ $.-.$.{ ( p X .   % q , X                             ",
"                            . .     . o c } ` { #.#.` } x o .     . .                               ",
"                                    . O n >.M k y s m ,.n + .                                       ",
"                                    . O b <.b @ . @ b ,.n + .                                       ",
"                                    O f M B w . . . w B M f O                                       ",
"                                  . f N N z , . . . , z N N f .                                     ",
"                                  . h ,.N z , . . . , z >.,.h .                                     ",
"                                  . i ..} i o . . . o u } ..i .                                     ",
"                                  . ^ $._ % .       . % _ &.^ .                                     ",
"                                % ^ $.%.( % .       . % ) $.$.~ %                                   ",
"                              . 8 #.;.=._ % .       . % _ =.;.#.8 .                                 ",
"                              . % _ ] _ ( % .       . % ( _ ] _ = .                                 ",
"                              . . % - - = . .       . . = - = % . .                                 ",
"                              . . . . . . . .       . . . . . . . .                                 "
};
