/* XPM */
static char *img_exit31711289586[] = {
/* columns rows colors chars-per-pixel */
"50 50 74 1 ",
"  c #040D2D",
". c #B40C2E",
"X c #BD0C2E",
"o c #DC061F",
"O c #FF0003",
"+ c #FF000B",
"@ c #FF0013",
"# c #FF0916",
"$ c #FF001C",
"% c #C00C2E",
"& c #DC0721",
"* c #DC0D25",
"= c #DB1027",
"- c #DB142A",
"; c #E40622",
": c #ED0723",
"> c #EE0B26",
", c #F30622",
"< c #FF0325",
"1 c #F60925",
"2 c #FD0A26",
"3 c #FF062B",
"4 c #FF0C2F",
"5 c #E4132B",
"6 c #FF112E",
"7 c #FF0D31",
"8 c #FF1335",
"9 c #FF1A36",
"0 c #FF1338",
"q c #FF1B3B",
"w c #FF2442",
"e c #FF2947",
"r c #FF2C4A",
"t c #FF3551",
"y c #FF3D56",
"u c #FF3E58",
"i c #FF435D",
"p c #FF4761",
"a c #FF4C64",
"s c #FF546B",
"d c #FF596F",
"f c #FF5C71",
"g c #FF6276",
"h c #FF6C75",
"j c #FF657A",
"k c #FF697E",
"l c #FF6C81",
"z c #FF7184",
"x c #FF7689",
"c c #FF7A8C",
"v c #FF818B",
"b c #FF8594",
"n c #FF8B9A",
"m c #FF95A3",
"M c #FF99A6",
"N c #FF9CAA",
"B c #FFA3B0",
"V c #FFABB6",
"C c #FFAFB9",
"Z c #FFB2BD",
"A c #FFBBC5",
"S c #FFBFC8",
"D c #FFC3CB",
"F c #FFC9CF",
"G c #FFCCD2",
"H c #FFD1D6",
"J c #FFD6DC",
"K c #FFDADE",
"L c #FFDEE2",
"P c #FFE1E4",
"I c #FFECEE",
"U c #FFEFF0",
"Y c #FFF2F3",
"T c #FEFFFF",
/* pixels */
"                                                  ",
"                                                  ",
"                                                  ",
"                                                  ",
"                                                  ",
"%%%%%%%%%%%%%%%%%%%%%%%%%%%%%%%%%%%%%%%%%%%%%%%%%%",
"44444444447474447444447444444444444444444744444744",
"74744474444444444447444447474447744474744444744444",
"44474474444444444744444444447447444744444444444474",
"44444444474474474444447444444444744444444474474444",
"74447444747444444447474474444444444444474744444444",
"74744447444444747444447744474474447474444474444444",
"44444444444447444447444887444444444444444744744444",
"44444444744744444444478984447474477447474444444444",
"44484747474744444444889844777744744444464474447744",
"448<@OO++O+O+<0<O+<890847<O+30$O+77<+++O++O++O++84",
"443sxlzzzzzzze#rxzw<8844$txz0#uxk7$ycxzlzzzlzlzf33",
"80@DTTTTTTTTTgOjTTs$7444OcTTrOmTT8ONTTTTTTTTTTTT<<",
"98+VTTTTTTTTTsOdTTa@4444+lTTeObTU0OnTTTTTTTTTTTJ<<",
"87+VTH8qwwwww8OdTTi@4444OlTTeObTIw19www#BTPq9wew43",
"43+VTG+@$$$$$3OkTTeO@08+OgTTrObTIq3<$$$OmTJ@@$$$70",
"44+VTG$<7447443unbbvf$3zvnbnqObTY8$4444+MTK3<47479",
"44@VTF+$<$$<<3q3OOYTGO@TTAOO1+nTI8$4444OMTJ<<448q0",
"74+VTG48qwqqq744><DIV#8HYM+77+bTU8<4444+NTL<<44784",
"43+VTTTYTTYTTa+4478+jTTt$8778@bTU0$4444OMTL<<47444",
"44@VTTTTTTTTTgO478OOsTT4O+099+bTU9<4444+NTK<<44444",
"44+VTPlzxxxxcr$44<cmnhzmmk$98ObTU8$4474+MTK3<44444",
"73+VTDOO+++OO<03+OTTDOOTTDO@3ObTU8<4444OMTK<<44447",
"73@VTG$498744448rwALM+3SPN9r7ObTU0$4747OMTJ<<44444",
"44+VTG<4744444+fTTuO<74<OkTTrObTU9<4444+MTJ3<44444",
"44+VTDOO+++++<+fTTi+3443OkTTeObTI0$4444+NTK3<44774",
"44+VTIVZZZZZZuOdTTp+8747OlTTeObTU8<4478@NTL<<44444",
"43+ATTTTTTTTTjOgTTp+q944OcTTrOmTT8$4409+VTY<<44444",
"44$nGGGGGGGFGiOpGFt$9044+dGGwOkGS8<4788@cGZ3<44474",
"7qq<$@$#@$$$$301$$0q84447<$$48<$$478q847<$$4844444",
"80033333333334738887344474334433340984474334444444",
"9734444444444444798444444744444448q844447444444477",
"438874444844777994477744777477448q8477747777777777",
"78943343343436086424444443444338983343444442444389",
"8w03686442:;*=5>$122;oo;&;;;*oo==oooooooooooooo=-*",
"98444884444464448447444444444232224332111111124662",
"83474444446447444444447747776447444747444774777447",
"44444444444444447444444444444444444444444448444444",
"44444474444444444447444444444444447644844444444474",
"44444444744447444444474444444447474444447444474444",
"XXXX..XX%%%%X%%%%%%%%%%%%%%%%%%%%%%%%%%%%%%%%%%%%%",
"                                                  ",
"                                                  ",
"                                                  ",
"                                                  "
};
