/* XPM */
static char *img_walls1711290604[] = {
/* columns rows colors chars-per-pixel */
"50 50 205 2 ",
"   c None",
".  c #1A1A6F",
"X  c #341E7D",
"o  c #002279",
"O  c #12207F",
"+  c #53005F",
"@  c #6F0047",
"#  c #72004C",
"$  c #6D0052",
"%  c #6D005A",
"&  c #720053",
"*  c #7B0055",
"=  c #74005D",
"-  c #7A005B",
";  c #5B0676",
":  c #5C137F",
">  c #4A0B70",
",  c #6E0068",
"<  c #740063",
"1  c #7A0063",
"2  c #76016D",
"3  c #79016B",
"4  c #6F0072",
"5  c #680A7C",
"6  c #730373",
"7  c #7A0273",
"8  c #76057B",
"9  c #7A057C",
"0  c #740A7E",
"q  c #7B1779",
"w  c #6A1179",
"e  c #800055",
"r  c #83016B",
"t  c #89006F",
"y  c #810063",
"u  c #8B0673",
"i  c #920073",
"p  c #92027A",
"a  c #9D0A7E",
"s  c #A80278",
"d  c #3E1B87",
"f  c #192487",
"g  c #362080",
"h  c #4B1383",
"j  c #4A1789",
"k  c #481C85",
"l  c #52148F",
"z  c #581386",
"x  c #53138E",
"c  c #700E81",
"v  c #6A1886",
"b  c #701182",
"n  c #7C1593",
"m  c #6A0D8F",
"M  c #5C3296",
"N  c #7C2484",
"B  c #733997",
"V  c #2A529B",
"C  c #554191",
"Z  c #5445A2",
"A  c #5057A7",
"S  c #5D67B2",
"D  c #6872BF",
"F  c #6C7BC9",
"G  c #7B7BCA",
"H  c #7E77C6",
"J  c #735DE9",
"K  c #6E7EFC",
"L  c #7878FB",
"P  c #777BEF",
"I  c #870684",
"U  c #950188",
"Y  c #970187",
"T  c #99059B",
"R  c #871294",
"E  c #A00089",
"W  c #A30485",
"Q  c #A71A8A",
"!  c #A20095",
"~  c #A2019C",
"^  c #B30092",
"/  c #B5009D",
"(  c #B8009B",
")  c #8C2684",
"_  c #A4248F",
"`  c #9C0AA5",
"'  c #9D09A8",
"]  c #9D1DAF",
"[  c #981EB9",
"{  c #A403A4",
"}  c #A205AC",
"|  c #AB04AB",
" . c #A80AAA",
".. c #B200A4",
"X. c #BE00A1",
"o. c #BD00AF",
"O. c #A40CB2",
"+. c #BB03B5",
"@. c #BD1ABB",
"#. c #9427BA",
"$. c #A72EA6",
"%. c #CB00AD",
"&. c #C500B6",
"*. c #CC00B5",
"=. c #C601BD",
"-. c #CD00BC",
";. c #D200BD",
":. c #D900B6",
">. c #93459B",
",. c #8C68BC",
"<. c #AC05C5",
"1. c #BB03C4",
"2. c #B30BC3",
"3. c #B303CB",
"4. c #BE06C9",
"5. c #B50DCD",
"6. c #BA0BCD",
"7. c #A815CF",
"8. c #B517CD",
"9. c #BD0DD2",
"0. c #AB1CD3",
"q. c #B610D1",
"w. c #BA10D3",
"e. c #B21BD3",
"r. c #B418DB",
"t. c #B817D6",
"y. c #9E28D6",
"u. c #8E37DD",
"i. c #9E36DD",
"p. c #943BCB",
"a. c #AB22D8",
"s. c #A437DB",
"d. c #B92CC1",
"f. c #9C36E5",
"g. c #8B3FE3",
"h. c #B03CED",
"j. c #C402C4",
"k. c #CC01C4",
"l. c #C305CB",
"z. c #CC06CB",
"x. c #C309CD",
"c. c #CE0DC8",
"v. c #D301C5",
"b. c #D501CB",
"n. c #D806C7",
"m. c #D910CD",
"M. c #C10BD1",
"N. c #C509D7",
"B. c #D401D1",
"V. c #DB04D4",
"C. c #C514CC",
"Z. c #E300CB",
"A. c #E101DC",
"S. c #E700D8",
"D. c #EA18D7",
"F. c #C826D5",
"G. c #DA26D8",
"H. c #F526D9",
"J. c #CA09E8",
"K. c #DC02E2",
"L. c #D305E3",
"P. c #CB0CF2",
"I. c #E302E3",
"U. c #EB00E3",
"Y. c #E601E9",
"T. c #EB01ED",
"R. c #FD00E7",
"E. c #E305F0",
"W. c #EE02F4",
"Q. c #E604F9",
"!. c #F201F6",
"~. c #FB01F6",
"^. c #F502FE",
"/. c #FD02FF",
"(. c #D530FE",
"). c #D33FE4",
"_. c #F832E4",
"`. c #9D44D2",
"'. c #9071C9",
"]. c #8E71C4",
"[. c #8E48EA",
"{. c #8956ED",
"}. c #9356EC",
"|. c #904DE8",
" X c #B455EE",
".X c #867AFF",
"XX c #D14EED",
"oX c #E05FFB",
"OX c #F651EB",
"+X c #E57AFE",
"@X c #F064F8",
"#X c #008EA3",
"$X c #009AA4",
"%X c #608DF5",
"&X c #00C8C6",
"*X c #00E9E1",
"=X c #00FFE4",
"-X c #00FFF7",
";X c #8295FF",
":X c #B09EFF",
">X c #A48BFF",
",X c #A2A0FF",
"<X c #C48DFF",
"1X c #D581FF",
"2X c #C796FF",
/* pixels */
"                                                                                                    ",
"                                                                                                    ",
"                                                                                                    ",
"                                            *X    -X&X                                              ",
"                                          P V     %XV                                               ",
"                                            l.z   /.+.m                                             ",
"                                          /./.Q./.V.k.L.~.U.n.T                                     ",
"                                          N.L.E.N.{ k.| T T T ! j                                   ",
"                                          t.N.J.M.' =.2.9.M.2.+.d                                   ",
"                                          U.U.!.B.X.=.&.k.k.&.%.>                                   ",
"                | Z.~.!.!.!.!.!.!.~.!.!.!.!.^.^.U.V.Q.~.!.^.S.W.K./.L.. f                           ",
"              b.' ` 6.x.4.6.4.4.x.6.4.x.4.2./.E.R d P./././.n 4.M.R Y.h O                           ",
"              k.` ` 6.6.6.6.6.6.6.6.6.6.5.2./.Y.R X J./././.n 2.6.R Y.k o       =X$X    =X#X        ",
"              I.^ / b.v.v.b.v.v.b.v.v.b.v.*./.!.s z P./././.W v.b.^ R.c f       h.b.+   (.^ ;       ",
"    z A.!.W.!.!.Y.W.W.W.W.T.W.W.W.T.W.W.W.W.W.Y.!.K.!.^.!.T.A.B.B.B.I.B.+.-.=.-.Z.:.5   R.:.5       ",
"    %.*.k.=.j.=.j.k.=.=.k.=.=.k.=.k.=.=.k.=.=.H.!.E Y.^.k.Y 8 &.o...p y i r t t r t i t r t i c     ",
"    ] s.v.=.k.k.k.k.=.j.k.=.k.k.=.k.k.=.k.k.C.,XW.Y Y.^.k.U j /./.I.@.) & = < = = < = = < = - d     ",
"    [ f.x.q.9.3.5.M.q.q.w.q.q.3.5.w.w.q.w.9.e.u.!.E Y.^.v.U l /./.Z.`.S - 3 3 3 3 3 3 3 3 3 r h     ",
"    ..k.j.j.j.D.m.j.k.j.z.j.=.D.v.j.k.j.k.j.j.&.!.E Y.^.k.U l /./.S.' w 2 8 8 8 8 9 9 8 6 8 9 h     ",
"    / -.v.=.%.<XXX*.-.=.-.-.&.2XF.-.k.=.k.k.*.&.W.E Y.^.z.U l /./.V.~ $ Q r = 1 < 1 - 1 Q 1 e j     ",
"    O.r.9.5.M.u.y.M.9.q.9.q.M.[.0.M.9.q.w.9.5.5.!.E Y.^.k.U l /./.A.~ $ F N < 1 1 3 < 3 %Xe y j     ",
"    | l.l.l.l.Z.z.4.j.j.l.j.l.k.j.l.l.j.l.j.k.m.!.E Y.^.v.U l /./.A.} 6 v c 9 9 8 6 9 0 : 7 9 h     ",
"    ( ;.-.*.%.+XXX*.=.-.;.-.-.-.-.-.;.-.;.-.c.<XW.E Y.^.k.U l /./.A.~ = 1 < 3 < 3 s < 3 s 1 1 j     ",
"    O.t.9.5.x.{.s.x.6.5.M.5.9.9.6.9.9.5.9.9.e.J !.E Y.^.k.U l /./.V.! = 1 - 1 - q G & 3 G < e j     ",
"    | 9.l.1.x.k.j.4.z.z.4.4.l.l.4.l.l.4.l.4.j.k.W.E Y.^.k.U l /./.A.} 4 9 0 9 9 c M 9 0 M c u h     ",
"    ( ;.v.-.;.-.-.%.oXoX%.-.-.v.-.;.k.*.;.-.c.+XW.E Y.^.v.U l /./.I.~ < 3 3 3 3 1 1 3 3 1 3 3 j     ",
"    | w.l.6.M.6.6.k.}.}.z.6.6.x.6.6.9.4.M.4.e.L !.E T.^.k.U l /./.V.~ & - = - - = 1 - - - - e j     ",
"    | 9.9.6.M.x.6.9.j.j.9.4.6.M.6.6.l.4.M.6.4.+.Q.W Y.^.k.U l /./.A.} 4 9 8 9 9 8 9 8 8 9 9 9 h     ",
"    ..k.;.-.;.-.-.;.-.-.;.*.-.;.;.%.@XG.*.;.-.*.!.E Y.^.v.U l /./.A.{ < 6 2 3 7 2 7 7 2 7 2 3 h     ",
"    #.|.k.4.l.l.4.l.x.1.x.4.l.l.1.k..X`.j.l.4.4.W.E Y.^.z.U l /./.K.! # - - - - * - - - - - e j     ",
"     .w.9.5.9.9.5.M.5.9.9.5.9.9.9.9.l.4.9.9.9.<.!.Y Y.^.k.U l /./.A.' 2 7 8 7 8 8 9 6 8 9 8 7 h     ",
"    / ;.;.-.;.-.-.;.-.-.;.-.-.k.*.-.v.-.-.-.v.OX!.E Y.^.v.U l /./.V.| 3 7 6 7 7 6 7 7 7 7 8 r h     ",
"    | l.l.j.l.l.j.l.j.j.l.j.l.l.j.l.l.j.l.j.8.;X!.W T.^.z.U l /./.V.d.>.# * - - - - - - - * e j     ",
"    O.r.9.q.9.3.3.M.q.q.M.q.q.w.q.9.9.q.9.9.q.7.!.Y Y.^.v.U l /./.Z.p.A 1 6 7 7 6 7 7 6 , 6 7 h     ",
"    / -.k.*.=._.D.=.-.-.k.=.-.v.=.-.k.-.k.k.*.*.!.E Y.^.k.U l /./.I.{ 2 8 8 9 8 7 9 8 9 $.9 7 h     ",
"    ..z.j.=.*.>X X=.j.j.k.j.j.k.j.k.k.j.j.k.j.1.W.E Y.^.k.U l /./.V.! & - * - - - - * < D 1 e j     ",
"    O.r.9.q.9.a.0.9.9.q.w.q.q.3.5.q.w.q.w.q.9.7.!.Y Y.^.k.U l /./.A.{ < 6 2 7 2 2 7 2 2 w 7 3 h     ",
"    ( ;.k.k.k.-.=.k.j.=.k.k.j.H.v.j.k.=.k.k.=.=.!.E Y.^.z.U l /./.A.} 4 9 8 9 4 6 9 8 8 7 9 u h     ",
"    ] s.;.=.k.k.=.k.-.k.k.=.*.:XF.=.k.=.k.k.=.=.!.E T.^.k.U l /./.I.! & - - $ _ u = - - 1 - - j     ",
"    [ f.9.q.9.9.q.M.q.q.9.q.9.f.e.3.w.q.9.9.q.8.!.Y Y./.v.U l /./.V.~ < 3 3 * D B - 3 3 3 3 1 j     ",
"    ..k.j.j.j.k.j.k.j.j.k.j.j.-.v.D.1.=.j.j.j.=.!.E Y.^.k.U l /./.A.} 4 9 8 9 c c 9 8 8 c 9 9 h     ",
"    / -.k.-.k.k.*.k.-.=.k.-.-.*.XX<X%.-.;.k.=.&.!.Y Y./.k.U l /./.K.! = 1 1 1 1 1 1 1 < 1 1 e j     ",
"    O.r.M.5.9.9.q.9.9.5.9.q.9.M.y.[.x.5.9.9.5.q.!.Y Y.^.v.U l /./.A.~ = 1 < 1 1 1 1 1 1 < 1 y j     ",
"    ..z.l.j.l.j.4.l.j.l.l.1.j.l.v.Z.l.1.l.l.j.1.!.E Y.^.z.U l /./.A.' 8 4 8 c 9 8 4 0 9 I 9 9 h     ",
"     .8.;.-.;.;.-.k.*.*.v.-.-.*.XX+X%.*.k.;.*.*.!.E T.^.v.U l /./.A.~ % a r < < r a < 3 '.3 y j     ",
"    #.|.l.5.9.9.5.9.9.6.M.5.6.x.i.{.l.5.9.6.5.5.!.Y Y./.z.U l /./.A.! @ H N * - q G - < C 1 e j     ",
"    | z.l.l.z.4.j.z.4.x.l.4.l.x.j.k.x.4.l.l.l.l.!.W Y.^.k.U l /./.A.} 6 M v 6 9 b M 9 8 1 8 9 h     ",
"    ( ;.*.G.+X%.m.+X*.-.;.-.-.;.-.-.;.*.;.-.n.+XQ.Y Y.^.k.U l /./.A.~ , - r p 2 1 1 3 3 p 3 r j     ",
"    | 9.x.s.L l.e.L 9.9.9.5.9.9.5.M.9.9.9.9.e.%XW.E Y.^.k.U l /./.A.! & * ) ,.# * - - 1 ].1 * j     ",
"    O.w.9.9.l.w.9.l.q.9.9.q.w.w.q.9.9.q.9.q.9.l.!.E Y.^.v.U l /./.A.' 6 7 v Z 9 8 8 8 0 Z 0 8 :     "
};
