/* XPM */
static char *img_playerr1711293877[] = {
/* columns rows colors chars-per-pixel */
"50 50 165 2 ",
"   c None",
".  c #030101",
"X  c #0B0501",
"o  c #000B05",
"O  c #000D08",
"+  c #0F0C08",
"@  c #100601",
"#  c #120B02",
"$  c #120E0B",
"%  c #00110C",
"&  c #1B1207",
"*  c #1C150B",
"=  c #1F190F",
"-  c #13100C",
";  c #001211",
":  c #02101E",
">  c #0C131A",
",  c #141312",
"<  c #1A1712",
"1  c #1D1914",
"2  c #15181B",
"3  c #1E1E1E",
"4  c #201709",
"5  c #22190D",
"6  c #28190F",
"7  c #231C13",
"8  c #211D1B",
"9  c #292117",
"0  c #2C241B",
"q  c #2F281F",
"w  c #0B1822",
"e  c #0C1B2A",
"r  c #081424",
"t  c #111A24",
"y  c #1F1F20",
"u  c #221E21",
"i  c #1D2022",
"p  c #192128",
"a  c #14202C",
"s  c #0E2133",
"d  c #0A253B",
"f  c #132538",
"g  c #232122",
"h  c #2E2721",
"j  c #2E2923",
"k  c #2D2B2A",
"l  c #332C24",
"z  c #302D2A",
"x  c #373027",
"c  c #36312A",
"v  c #3B352D",
"b  c #252332",
"n  c #333434",
"m  c #3E3730",
"M  c #3E3931",
"N  c #38393C",
"B  c #7C0704",
"V  c #771F19",
"C  c #423C35",
"Z  c #443F39",
"A  c #46413B",
"S  c #4A433D",
"D  c #2F524B",
"F  c #4C4641",
"G  c #4F4B47",
"H  c #514C45",
"J  c #534E49",
"K  c #57524C",
"L  c #5A544E",
"P  c #5C5752",
"I  c #535D56",
"U  c #5D5A54",
"Y  c #6E4741",
"T  c #714540",
"R  c #635E5A",
"E  c #615C56",
"W  c #66615B",
"Q  c #68625E",
"!  c #506864",
"~  c #5D7F7A",
"^  c #6B6662",
"/  c #6D6964",
"(  c #716D6A",
")  c #706B66",
"_  c #74716C",
"`  c #6F7172",
"'  c #657F7A",
"]  c #737373",
"[  c #797672",
"{  c #7D7A77",
"}  c #7E7C7A",
"|  c #920301",
" . c #801E18",
".. c #A40401",
"X. c #AE0301",
"o. c #B70100",
"O. c #B81713",
"+. c #9A231C",
"@. c #E70A07",
"#. c #E20705",
"$. c #FF0907",
"%. c #F70908",
"&. c #F3100E",
"*. c #E81F1B",
"=. c #E41213",
"-. c #CB2220",
";. c #E32721",
":. c #EA2422",
">. c #F72722",
",. c #FD2324",
"<. c #FF2827",
"1. c #FF292A",
"2. c #807E7B",
"3. c #5B827D",
"4. c #61817D",
"5. c #83817E",
"6. c #668985",
"7. c #6E938F",
"8. c #868483",
"9. c #8B8B8B",
"0. c #938E8C",
"q. c #94908E",
"w. c #889A98",
"e. c #949495",
"r. c #999593",
"t. c #9F9A97",
"y. c #97989B",
"u. c #9C9B9B",
"i. c #A09E9C",
"p. c #A0A09D",
"a. c #9D9FA1",
"s. c #9FA1A4",
"d. c #A2A2A2",
"f. c #A8A7A7",
"g. c #A8A8A6",
"h. c #A6A8A9",
"j. c #ACACAC",
"k. c #B0AFAE",
"l. c #B2B1AF",
"z. c #AFAFB0",
"x. c #AFB1B1",
"c. c #B3B3B3",
"v. c #B6B7BA",
"b. c #B7B9BB",
"n. c #BCBCBC",
"m. c #BAB7B5",
"M. c #C4C4C5",
"N. c #C8C6C6",
"B. c #C5C7CA",
"V. c #CECECE",
"C. c #D0CECD",
"Z. c #D0D0CF",
"A. c #CDCFD0",
"S. c #D3D3D3",
"D. c #D9DADA",
"F. c #D6D9DA",
"G. c #DFDFE0",
"H. c #DEE7E7",
"J. c #E3E3E4",
"K. c #E6E7E9",
"L. c #E5E9EA",
"P. c #EAEBEC",
"I. c #EFF0F0",
"U. c #F3F3F4",
"Y. c #FDFDFE",
/* pixels */
"                                                                                                    ",
"                                                                                                    ",
"                                          H H F H H H H P 7                                         ",
"                                      . r.Y.U.Y.Y.U.I.P.Y.k.Q                                       ",
"                                    Q C.Y.P.J.D.S.F.C.V.N.K.Y.4.                                    ",
"                                  W Y.Y.K.D.Z.V.V.V.V.Z.V.V.S.I.2.                                  ",
"                                ^ U.Y.J.V.V.V.V.C.V.C.Z.C.C.C.S.I.P                                 ",
"                              4 D.Y.K.N.V.C.C.Z.A.C.C.S.C.C.C.C.J.L                                 ",
"                              X M.U.S.V.Z.C.V.V.V.V.V.V.V.V.V.V.J.K                                 ",
"                              C D.K.V.A.A.V.Z.F.F.S.S.D.I.U.D.S.P.S                                 ",
"                              l.Y.D.Z.S.Z.Z.U.Y.Y.Y.Y.L.4.3.H.Y.Y.m.                                ",
"                              d.Y.P.m.n.n.P.q.Z L L I T o.o.T I K ) j                               ",
"                              m.Y.S.V.n.A.6.| $.@.@.#.&.1.1.&.$.B .                                 ",
"                              _ G.S.Z.C.L.~ ..1.1.1.<.1.1.<.1.1.:.6                                 ",
"                              . c.J.V.Z.L.6...1.<.<.<.<.1.1.1.<.1.V                                 ",
"                              * d.S.K.J.Y.7.X.1.1.1.1.<.&.,.1.1.-.                                  ",
"                                # F k.i.z.! B >.;.;.*.O.D +.=.,. .                                  ",
"                                      X . X ; % % O o ' J.w.; o                                     ",
"                                  7 7 l k - * 1 1 - g ` j.V.H                                       ",
"                                . $ + k N j l n n z h ] y.] h                                       ",
"                              K [ / ( c 3 n n - X X X Q { l E E                                     ",
"                              j.Y.P.U.S . 3 < / 5.2.{ / ( q M.P.i.C                                 ",
"                            J P.S.Z.S.d.0 = ) M.M.n.n.n.M.g.H N.U.V.q                               ",
"                            i.P.V.S.M.j.S c.c.j.j.j.j.j.j.c.A m.S.F.v                               ",
"                          K U.N.S.D.M.j.C z.j.j.j.j.j.j.j.j.A j.G.S.c                               ",
"                          F J.D.n.c.F.W 2.l.j.j.j.j.j.j.j.c.F l.c.S.C                               ",
"                          H Y.c.C H q.c u.c.j.j.j.j.c.b.j.c.C P # [ M                               ",
"                          c 0.U u.q.A 7 u.v.j.k.j.j.u.] j.c._ C     *                               ",
"                            . { n.j.v.9.v Q j.g.d.j.u.l u.h.A.u.@                                   ",
"                              0 } u.v.t.+ > c 1   M.e.& P M.c.l                                     ",
"                                X c 8.k r s e : l 8.v . v 5./ *                                     ",
"                                  & X > s f f a * X 2 g < X @   7 t p p p 1                         ",
"                                    5 2 w e t 1 7 y y y i i 7   = e d d s 1                         ",
"                                    8 8 5 7 1 8 y y 3 y 3 y 7     2 2 t 1 5                         ",
"                                    8 i y g y 3 9 3 y 3 y y 7       5 5 5                           ",
"                                    7 i y 2 , , 2 i y y 8 2 1                                       ",
"                                    < X X 0 m m 0 . X , 1 j 9                                       ",
"                                    z U q G M.j.9.S P G . ( H                                       ",
"                                    U B.c.K } j.f.b.z.S l d.m                                       ",
"                                    A e.{ 7 7 y.h.y.j . 8.b.J                                       ",
"                                    C A c } F G s.k 9 K 0 M ( 7                                     ",
"                                  A s.d.c.b.} 0 j 9 e.v.r.P J 7                                     ",
"                                  v e.y.d.x.{     U y.} u.B.j.7                                     ",
"                                  G q.8.d.j.v     & ( q.8.u.C                                       ",
"                                j 9.8.y.e.m       + ] d.9._ 7                                       ",
"                                j 9.y.U l           z K s.A                                         ",
"                                9 8.g.l             X 7 5.9.v                                       ",
"                                4 4 4 4             4 4 & 7 5                                       ",
"                            b b g u u u b b b b b b u u u u u b b                                   ",
"                              b b b b b b b b b b b b b b b b b b                                   "
};
