/* XPM */
static char *img_player_walk1711293661[] = {
/* columns rows colors chars-per-pixel */
"50 50 167 2 ",
"   c None",
".  c #040100",
"X  c #0B0501",
"o  c #000B05",
"O  c #000D08",
"+  c #0F0C08",
"@  c #110701",
"#  c #140B02",
"$  c #120E0B",
"%  c #00110C",
"&  c #181006",
"*  c #1B140B",
"=  c #1F190F",
"-  c #13100C",
";  c #001211",
":  c #04101E",
">  c #0C131A",
",  c #141312",
"<  c #1B1712",
"1  c #1D1914",
"2  c #15181B",
"3  c #1E1E1E",
"4  c #201709",
"5  c #21190C",
"6  c #28190F",
"7  c #221B13",
"8  c #211D1A",
"9  c #2C241B",
"0  c #2F281F",
"q  c #23201C",
"w  c #0B1822",
"e  c #0C1B2A",
"r  c #081424",
"t  c #111A24",
"y  c #1F1F20",
"u  c #231F21",
"i  c #1D2022",
"p  c #192128",
"a  c #14202C",
"s  c #0E2133",
"d  c #0A253B",
"f  c #122638",
"g  c #122637",
"h  c #232221",
"j  c #2D2724",
"k  c #2E2923",
"l  c #2D2B2A",
"z  c #332D25",
"x  c #302D2A",
"c  c #363027",
"v  c #36312A",
"b  c #3A342D",
"n  c #252331",
"m  c #333434",
"M  c #3E3730",
"N  c #3F3A32",
"B  c #38393C",
"V  c #7C0704",
"C  c #771F19",
"Z  c #433D36",
"A  c #443F39",
"S  c #45413C",
"D  c #4A433C",
"F  c #2F524B",
"G  c #4C4641",
"H  c #4F4B46",
"J  c #514B44",
"K  c #534F49",
"L  c #57514B",
"P  c #5A534E",
"I  c #5B5652",
"U  c #535D56",
"Y  c #5D5A54",
"T  c #6E4741",
"R  c #714540",
"E  c #625E5A",
"W  c #615C56",
"Q  c #66615C",
"!  c #68625E",
"~  c #506864",
"^  c #5D7F7A",
"/  c #6B6662",
"(  c #6C6864",
")  c #706B66",
"_  c #726D6A",
"`  c #75706B",
"'  c #6F7172",
"]  c #657F7A",
"[  c #737473",
"{  c #7A7673",
"}  c #7D7A77",
"|  c #7E7C7A",
" . c #920301",
".. c #801E18",
"X. c #A40401",
"o. c #AE0301",
"O. c #B70100",
"+. c #B81713",
"@. c #9A231C",
"#. c #E70A07",
"$. c #E20705",
"%. c #FF0907",
"&. c #F70908",
"*. c #F3100E",
"=. c #E81F1B",
"-. c #E41213",
";. c #CB2220",
":. c #E32721",
">. c #EA2422",
",. c #F72722",
"<. c #FD2324",
"1. c #FF2827",
"2. c #FF292A",
"3. c #807E7B",
"4. c #5B827D",
"5. c #61817D",
"6. c #83817E",
"7. c #668985",
"8. c #6E938F",
"9. c #858483",
"0. c #8A8886",
"q. c #8C8B8B",
"w. c #938E8C",
"e. c #94908E",
"r. c #889A98",
"t. c #939494",
"y. c #9A9692",
"u. c #9D9997",
"i. c #97989B",
"p. c #9C9B9B",
"a. c #A19F9C",
"s. c #9D9FA1",
"d. c #A3A3A3",
"f. c #A8A7A7",
"g. c #A8A8A6",
"h. c #A7A7A9",
"j. c #A6A8AA",
"k. c #ACACAC",
"l. c #B0AFAE",
"z. c #B3B1AF",
"x. c #ADAFB0",
"c. c #AFB1B1",
"v. c #B2B3B3",
"b. c #B7B7BA",
"n. c #B7B8BA",
"m. c #BBBBBC",
"M. c #BAB7B5",
"N. c #C4C4C4",
"B. c #C9C7C6",
"V. c #CECECE",
"C. c #C4C6CA",
"Z. c #D0CECD",
"A. c #D0D0CF",
"S. c #CCCFD0",
"D. c #D3D3D3",
"F. c #DADADA",
"G. c #D6D9DA",
"H. c #DFDFE0",
"J. c #DEE7E7",
"K. c #E2E3E4",
"L. c #E6E7E9",
"P. c #E5E9EA",
"I. c #EAEBEC",
"U. c #EEEFF2",
"Y. c #EFF0F1",
"T. c #F2F3F4",
"R. c #FDFDFE",
/* pixels */
"                                                                                                    ",
"                                                                                                    ",
"                                          J J J J J J J Y 7                                         ",
"                                      . y.R.T.T.R.T.Y.I.R.z.Q                                       ",
"                                    Q Z.R.Y.K.F.D.D.V.V.N.L.R.|                                     ",
"                                  Q R.R.K.F.D.V.V.V.V.A.A.V.D.I.3.                                  ",
"                                / T.R.K.V.V.V.A.A.A.S.V.A.V.A.A.Y.I                                 ",
"                              * F.R.L.B.Z.Z.V.V.S.S.A.A.V.A.A.A.K.P                                 ",
"                              X N.T.D.V.Z.V.V.V.V.V.V.V.V.V.V.V.K.P                                 ",
"                              Z F.L.V.A.S.V.Z.F.D.D.D.F.T.T.F.D.I.S                                 ",
"                              z.R.F.Z.D.A.A.T.R.R.R.R.P.5.^ J.R.R.M.                                ",
"                              d.R.I.n.m.m.I.w.A I P U T O.O.R U L ) k                               ",
"                              M.R.D.V.m.V.7. .%.#.#.$.*.2.2.*.%.V .                                 ",
"                              ` H.D.D.Z.P.4.X.2.1.2.2.2.2.1.2.2.>.6                                 ",
"                              . v.L.V.V.P.7.X.2.1.2.2.2.2.2.2.1.2.C                                 ",
"                              * d.D.L.K.R.8.o.2.2.2.2.<.*.<.2.2.;.                                  ",
"                                # D l.a.v.~ V ,.:.:.=.+.F @.-.<...                                  ",
"                                      X . . ; % % O o ] K.r.; o                                     ",
"                                  7 7 x l * * 1 < * h [ k.V.J                                       ",
"                                . $ + l B k k m m l h [ i.[ j                                       ",
"                              L { / ` v 3 m m $ X X X ! } z W W                                     ",
"                              k.R.I.T.D . 3 < ( 3.3.3.( _ 9 N.T.d.Z                                 ",
"                            K I.D.A.D.d.9 1 ) N.N.m.m.m.N.g.L N.R.B.0                               ",
"                            a.I.V.D.N.k.D x.v.z.k.k.k.k.f.n.0.9 n.K.b                               ",
"                          L T.B.D.F.N.k.Z z.k.k.k.k.k.k.k.k.v.b Q U.z                               ",
"                          G K.F.m.v.G.Q | v.k.k.k.k.k.k.k.k.m.3.L I.Z                               ",
"                          J R.v.Z J e.v p.v.k.k.k.k.l.b.x.k.m.0.. { N                               ",
"                          v w.Y p.e.A 7 d.v.k.z.k.l.s.{ f.x.m.0.    *                               ",
"                            . } m.f.m.0.b ! l.d.f.f.p.z s.f.m.q.@                                   ",
"                              9 | p.n.p.$ > z x t.n.t.& Y C.v.z                                     ",
"                                X b 9.x r s e : v 6.v . b 6.( *                                     ",
"                                  * X > s f f a * X 3 h < X @   3 y p p p 7                         ",
"                                    5 2 w e t < 7 i u 3 y i 7   = e d d s 1                         ",
"                                    8 8 7 7 1 3 3 3 y y y y 1     2 t 2 1 5                         ",
"                                    8 i 3 3 3 3 y y y y y y 7       5 5 5                           ",
"                                    3 i y 3 , , < y y y y y 1                                       ",
"                                    * X X 9 M M 9 X X , q # *                                       ",
"                                    v I 0 H N.k.q.D I G . b                                         ",
"                                    Y C.c.L 3.k.d.n.j.Y Q s.S                                       ",
"                                    S t.} q 7 i.j.t.S = I H &                                       ",
"                                    Z S v | G H s.v Y q.3.p.K X                                     ",
"                                  S s.d.n.n.| 9 b . [ p.9.i.b.Y                                     ",
"                                  b t.i.d.v.{     * z 3.q.q.x.u.@                                   ",
"                                  H e.9.s.k.b       - * A 0.h.6.$                                   ",
"                                k q.9.i.t.M             X I j.} X                                   ",
"                                k q.i.Y k                 E s.p.J #                                 ",
"                                9 9.f.z                   7 ( q.y.6.9                               ",
"                                4 4 4 4                   1 1 1 q j 8                               ",
"                                u u u u n n                 n n n n n n                             ",
"                                    n n n n n n n n n n n n n n n n n n                             "
};
