/* XPM */
static char *img_fooddd1711294137[] = {
/* columns rows colors chars-per-pixel */
"50 50 255 2 ",
"   c None",
".  c black",
"X  c #000014",
"o  c #000016",
"O  c #000018",
"+  c #00001B",
"@  c #00001D",
"#  c #000022",
"$  c #000023",
"%  c #000123",
"&  c #000222",
"*  c #000026",
"=  c #000228",
"-  c #00022A",
";  c #00022B",
":  c #00012C",
">  c #00022D",
",  c #00022E",
"<  c #00032E",
"1  c #00072D",
"2  c #00072E",
"3  c #00092E",
"4  c #000332",
"5  c #000035",
"6  c #000337",
"7  c #000635",
"8  c #000C32",
"9  c #000D33",
"0  c #000936",
"q  c #000B36",
"w  c #000C36",
"e  c #000538",
"r  c #000638",
"t  c #00063D",
"y  c #000A3B",
"u  c #000C39",
"i  c #000A3D",
"p  c #00093E",
"a  c #000B3F",
"s  c #000D3E",
"d  c #000D3F",
"f  c #001035",
"g  c #001236",
"h  c #001237",
"j  c #001138",
"k  c #001238",
"l  c #00133A",
"z  c #001438",
"x  c #001439",
"c  c #00103E",
"v  c #00113E",
"b  c #00143C",
"n  c #000A41",
"m  c #000D42",
"M  c #000B45",
"N  c #000D48",
"B  c #000D4A",
"V  c #000D4B",
"C  c #001441",
"Z  c #001741",
"A  c #001743",
"S  c #001046",
"D  c #001146",
"F  c #001047",
"G  c #001646",
"H  c #001844",
"J  c #001847",
"K  c #001A47",
"L  c #001B47",
"P  c #001F46",
"I  c #00104C",
"U  c #00114D",
"Y  c #00164D",
"T  c #001849",
"R  c #001A4A",
"E  c #001C4B",
"W  c #00194C",
"Q  c #001C4C",
"!  c #001E4D",
"~  c #001E54",
"^  c #001E55",
"/  c #001C56",
"(  c #001F58",
")  c #00204A",
"_  c #00214A",
"`  c #002B4D",
"'  c #052E4C",
"]  c #002652",
"[  c #002155",
"{  c #002254",
"}  c #002157",
"|  c #002656",
" . c #002756",
".. c #042D50",
"X. c #002856",
"o. c #002759",
"O. c #00265A",
"+. c #002858",
"@. c #00295B",
"#. c #002A5D",
"$. c #003153",
"%. c #003456",
"&. c #00335D",
"*. c #00325E",
"=. c #003E5B",
"-. c #173556",
";. c #003C62",
":. c #003864",
">. c #003F69",
",. c #014663",
"<. c #004164",
"1. c #004366",
"2. c #00466C",
"3. c #00456F",
"4. c #00496B",
"5. c #004A6B",
"6. c #004C6A",
"7. c #004D6B",
"8. c #024C6E",
"9. c #11456F",
"0. c #174A6B",
"q. c #004F72",
"w. c #004977",
"e. c #00537A",
"r. c #00547D",
"t. c #005C7C",
"y. c #125577",
"u. c #1F5C7C",
"i. c #235977",
"p. c #006077",
"a. c #00637A",
"s. c #00647C",
"d. c #406079",
"f. c #5E6072",
"g. c #006780",
"h. c #006C8A",
"j. c #1B718E",
"k. c #226E91",
"l. c #367296",
"z. c #556D82",
"x. c #577186",
"c. c #567286",
"v. c #587286",
"b. c #557389",
"n. c #54758B",
"m. c #54758C",
"M. c #55768E",
"N. c #527690",
"B. c #527691",
"V. c #527692",
"C. c #557790",
"Z. c #557095",
"A. c #547891",
"S. c #527B96",
"D. c #547B96",
"F. c #537C98",
"G. c #527D9B",
"H. c #527E9C",
"J. c #517F9E",
"K. c #6A7A8C",
"L. c #4C7EA0",
"P. c #0098A5",
"I. c #00ACB9",
"U. c #00B1BA",
"Y. c #00B3BB",
"T. c #00B1BC",
"R. c #00B3BE",
"E. c #00B4BF",
"W. c #688093",
"Q. c #698194",
"!. c #688396",
"~. c #688397",
"^. c #678498",
"/. c #678499",
"(. c #67859B",
"). c #66869D",
"_. c #66869E",
"`. c #66879F",
"'. c #6C8598",
"]. c #708899",
"[. c #5080A0",
"{. c #5182A3",
"}. c #6588A1",
"|. c #668AA2",
" X c #658BA4",
".X c #658BA7",
"XX c #648AA8",
"oX c #638EAB",
"OX c #648CA8",
"+X c #648DA9",
"@X c #638FAE",
"#X c #6490AE",
"$X c #6691AF",
"%X c #6292B0",
"&X c #6A96B2",
"*X c #02B1C1",
"=X c #00B3C0",
"-X c #00B5C0",
";X c #00B6C1",
":X c #00BBC4",
">X c #00BBC9",
",X c #00BCC8",
"<X c #00BDCA",
"1X c #00BFCD",
"2X c #4ABFCB",
"3X c #63B1C3",
"4X c #6EBCC8",
"5X c #00C2C9",
"6X c #00C3CA",
"7X c #00C6CF",
"8X c #00C8D0",
"9X c #00CED3",
"0X c #00D5DA",
"qX c #00D5DD",
"wX c #00D8DD",
"eX c #27CED6",
"rX c #2CCED6",
"tX c #2CCED7",
"yX c #00E3E6",
"uX c #00F9F7",
"iX c #00FBFA",
"pX c #00FEFC",
"aX c #1FF0F3",
"sX c #3BFFFF",
"dX c #4EC2CD",
"fX c #54C1CB",
"gX c #5AC2CE",
"hX c #46CAD4",
"jX c #50C2D0",
"kX c #54D6DD",
"lX c #5FD1DB",
"zX c #6AC3CE",
"xX c #62C5D3",
"cX c #6DCDD5",
"vX c #62CED9",
"bX c #6DCBD8",
"nX c #71CBD5",
"mX c #74D1DA",
"MX c #77D2DB",
"NX c #44FBFA",
"BX c #43FFFF",
"VX c #68FFFF",
"CX c #6BFFFF",
"ZX c #6FFFFF",
"AX c #74FFFF",
"SX c #76FFFF",
"DX c #85BCC7",
"FX c #A9B8C3",
"GX c #A8C0D1",
"HX c #8FF3F5",
"JX c #93FFFF",
"KX c #97FFFF",
"LX c #9CFFFF",
"PX c #A7FFFF",
"IX c #B7F0F2",
/* pixels */
"                                                                                                    ",
"                                                                                                    ",
"                                                                                                    ",
"                                                                                                    ",
"                                                                                                    ",
"                                                                                                    ",
"                                                                                                    ",
"                                                                                                    ",
"                                                                                                    ",
"                                                                                                    ",
"                                                                                                    ",
"                                                                                                    ",
"                                                                                                    ",
"                                                                                                    ",
"                                                                                                    ",
"                              w.XX%X#X#X#X#X#X#X@X@X#X#X#X#X#X#X%XXXw.                              ",
"                              &XGXZ.{.{.{.{.{.{.L.L.{.{.{.{.{.{.Z.GX&X                              ",
"                              &Xl.5 I I I V N I / } I V V V I I 5 l.%X                              ",
"                              oX{.N #.#.O.[ Y ^ xXjX( Y [ O.#.#.N H.oX                              ",
"                              OXH.M @.[ O.k.vXe.kX8Xr.bXk.@.[ #.M {.OX                              ",
"                              OXG.n { | 3XPXpX3.qX7X9.VXJX*XO.{ n H.OX                              ",
"                              OXG.t W j.PX>X&.F <XR.D :.1XBXh.W i G. X                              ",
"                               XG.6 s lXaX&.m X.Q Q X.i >.yX;XD 6 F. X                              ",
"                              }.D.6 G q.2.s ] G t.u.W ] y ;.4.W 6 F.}.                              ",
"                              }.V.s 2XnXhX<XW y.LXsX4.E gXmXMXE.y V.}.                              ",
"                              `.V.u R.5X5XU.Z i.NXiX6.W dXeXrXE.0 V.`.                              ",
"                              `.A.> b 8.<.6 ) Z 6.6.Z ) 4 <.0.b > A.`.                              ",
"                              `.M.* < cXIX%.- P Z Z P > %.HXtX< * M.`.                              ",
"                              ^.M.& 0 g.KX4X$.- fXzX- ..DXVXs.w & M.(.                              ",
"                              ^.M.& k b I.SXuX` qX9X-.SXZXP.k k & n./.                              ",
"                              ^.n.@ k w z p.U.=.0X6X,.8Xa.g g x @ n.^.                              ",
"                              !.n.+ g g 9 3 - 3 :XU.3 & < 9 g g + n.!.                              ",
"                              '.d.. o o o o X o & & + X o o o o . d.'.                              ",
"                              ].FXf.x.x.x.x.v.v.z.z.v.v.v.v.x.x.f.FX].                              ",
"                              ' K.!.W.!.W.!.W.!.W.W.W.W.Q.Q.W.!.!.K.'                               ",
"                                                                                                    ",
"                                                                                                    ",
"                                                                                                    ",
"                                                                                                    ",
"                                                                                                    ",
"                                                                                                    ",
"                                                                                                    ",
"                                                                                                    ",
"                                                                                                    ",
"                                                                                                    ",
"                                                                                                    ",
"                                                                                                    ",
"                                                                                                    ",
"                                                                                                    ",
"                                                                                                    "
};
