/* XPM */
static char *img_left1711308657[] = {
/* columns rows colors chars-per-pixel */
"50 50 201 2 ",
"   c None",
".  c #010101",
"X  c #0B0302",
"o  c #0C0A06",
"O  c #0C0C0D",
"+  c #020E0B",
"@  c #120201",
"#  c #1C0101",
"$  c #130C07",
"%  c #1A0D04",
"&  c #130D0B",
"*  c #190C08",
"=  c #19120C",
"-  c #14100C",
";  c #0E0E10",
":  c #141415",
">  c #1B1512",
",  c #1F1913",
"<  c #1D1C1D",
"1  c #141819",
"2  c #081719",
"3  c #230201",
"4  c #2C0101",
"5  c #270B0A",
"6  c #340302",
"7  c #3D0303",
"8  c #360E09",
"9  c #241406",
"0  c #261708",
"q  c #261809",
"w  c #2C110D",
"e  c #30120B",
"r  c #221915",
"t  c #2C1D12",
"y  c #251C19",
"u  c #291F1A",
"i  c #201713",
"p  c #371F18",
"a  c #2C221C",
"s  c #2D271A",
"d  c #352316",
"f  c #32241C",
"g  c #39281E",
"h  c #181F20",
"j  c #201F20",
"k  c #192021",
"l  c #252527",
"z  c #2F2925",
"x  c #262629",
"c  c #2C2A2B",
"v  c #2E2720",
"b  c #352B24",
"n  c #302A28",
"m  c #34302D",
"M  c #3A322A",
"N  c #303222",
"B  c #323334",
"V  c #3A3434",
"C  c #343639",
"Z  c #363A3D",
"A  c #3A3A3C",
"S  c #393738",
"D  c #440503",
"F  c #4A0403",
"G  c #4E0906",
"H  c #430A07",
"J  c #530A06",
"K  c #540B08",
"L  c #5D0D0A",
"P  c #580706",
"I  c #471B13",
"U  c #660A07",
"Y  c #650D09",
"T  c #680A08",
"R  c #7D0E0B",
"E  c #6B110E",
"W  c #66110D",
"Q  c #73130F",
"!  c #7B120D",
"~  c #761511",
"^  c #7B1612",
"/  c #7E1917",
"(  c #55261E",
")  c #45311F",
"_  c #4D3116",
"`  c #54371D",
"'  c #692219",
"]  c #422821",
"[  c #453223",
"{  c #4D3524",
"}  c #41362E",
"|  c #47392C",
" . c #513722",
".. c #533923",
"X. c #5D3F24",
"o. c #453B31",
"O. c #473D37",
"+. c #542724",
"@. c #632221",
"#. c #57412B",
"$. c #494039",
"%. c #55463A",
"&. c #564A3D",
"*. c #58493B",
"=. c #644224",
"-. c #694625",
";. c #6E4925",
":. c #674528",
">. c #764E2A",
",. c #784F2A",
"<. c #614935",
"1. c #655039",
"2. c #3C3E42",
"3. c #3E4146",
"4. c #414243",
"5. c #5C5345",
"6. c #4D5757",
"7. c #635447",
"8. c #6C5D4C",
"9. c #6F5D46",
"0. c #6E5F50",
"q. c #786048",
"w. c #6D6454",
"e. c #7A6657",
"r. c #776858",
"t. c #786C60",
"y. c #810E08",
"u. c #85160F",
"i. c #861611",
"p. c #8A1712",
"a. c #861914",
"s. c #8C1913",
"d. c #921A15",
"f. c #9A1B15",
"g. c #9B1D18",
"h. c #9C1712",
"j. c #A61A15",
"k. c #A51F19",
"l. c #A81F19",
"z. c #AE2019",
"x. c #A6211A",
"c. c #B3211A",
"v. c #BC231B",
"b. c #BC342B",
"n. c #B63933",
"m. c #C2241C",
"M. c #CC271E",
"N. c #C93530",
"B. c #8E4D38",
"V. c #80513E",
"C. c #984A33",
"Z. c #A34D3E",
"A. c #B84233",
"S. c #964443",
"D. c #955D4C",
"F. c #AE5D4C",
"G. c #83705C",
"H. c #937959",
"J. c #897866",
"K. c #927D69",
"L. c #E24F4D",
"P. c #D16C6B",
"I. c #C97360",
"U. c #9F815F",
"Y. c #8E836D",
"T. c #96816D",
"R. c #9D8771",
"E. c #9E8973",
"W. c #8A8A75",
"Q. c #A38D76",
"!. c #AE8876",
"~. c #B48C75",
"^. c #AC947C",
"/. c #AF9177",
"(. c #B69376",
"). c #C0836C",
"_. c #C28F74",
"`. c #C29E7B",
"'. c #C3A17F",
"]. c #B49B82",
"[. c #BCA086",
"{. c #BBA389",
"}. c #BFAA8F",
"|. c #BDB6B8",
" X c #DE8888",
".X c #C49A84",
"XX c #F68482",
"oX c #C2A589",
"OX c #C1A98E",
"+X c #CCA28A",
"@X c #CAAE91",
"#X c #C7AE93",
"$X c #CCB295",
"%X c #C5B499",
"&X c #D5BA9C",
"*X c #D8BA9D",
"=X c #D1B497",
"-X c #D8BDA0",
";X c #E7B1AB",
":X c #E4C8A8",
">X c #DEDDD2",
/* pixels */
"                                      . . . X . . X .                                               ",
"                                    . 6 J J G G J P 4 .                                             ",
"                                  . 3 i.c.c.l.l.c.c.u.3 @ X                                         ",
"                                . 6 u.c.m.v.m.v.v.v.l.i.p.L X                                       ",
"                                . G m.M.c.c.l.c.z.z.c.v.M.u..                                       ",
"                                . J h.j.j.c.v.c.z.z.c.c.v.p.#                                       ",
"                              @ Y U 4 6 U c.m.c.c.l.z.c.c.x.! 4 .                                   ",
"                              @ E ' s N I U ! p.c.v.z.z.c.m.c.F .                                   ",
"                              . X { H.U.<.X @ H h.v.c.l.c.v.c.J .                                   ",
"                              . . p B.C.V.5.] # 6 y.z.k.g.k.l.d.G X                                 ",
"                              . . 6 a.S.!..XZ.@.A ( ^ p.d.d.l.v.a.@                                 ",
"                              . . D n.;X>X+XA.P.|.6.4 R g.d.g.l.! @                                 ",
"                              . . F N.XX;X.XA.L. XV . y.k.d.d.g.E .                                 ",
"                              . . D i.b.I.(.F.b.n.( w E p.s.s.f.~ 4 .                               ",
"                              X 7 6 8 D._./.~.).).!.7.w F ~ ^ p.d.~ 6 .                             ",
"                              @ L 4 + W.&X].{.#X%X:XY.o 3 E E ~ d.g.G .                             ",
"                              X K 6 * r.OX$X$X$X%XOXw.X 4 Q E E ^ s.H .                             ",
"                              X P E H t w.@X&X&XOX8.> . 6 Q ~ E ~ Q 6 .                             ",
"                            . X L a.Y 6 f 0.r.r.0.| = . 7 ~ E E ~ E 6 .                             ",
"                              X G ~ Q P 7 & = & , q.9.$ 4 E ~ Q Q W 4 .                             ",
"                                # G Y 6 e X.<.#.1.^.Q.m X 6 E ^ L 6 X                               ",
"                                . 3 H p 8./.`.`.'.].J.4.2 X D Q L .                                 ",
"                                  . * e.{.#X#X$X{.t.2.C C k @ D K X                                 ",
"                                    . 5.^.=X-X].r.M : 2 B Z < 5 3 .                                 ",
"                                  . . * 5.Q.].e.a > * . 1 C 2.: .                                   ",
"                                . X > i u o.O.b r > y - X 1 B 1 .                                   ",
"                                . o u u i * & > y y u y . . : . .                                   ",
"                                . . u j u u y y y y u y X . < y o                                   ",
"                              . . . u a f g g f y y u r . - 8.R.8.&                                 ",
"                              . n M & & t ..#._ f a u $ . v Q.:XE.o                                 ",
"                            . f T.w.. . q -.>.X.{ ) t . . r J.@XQ.s .                               ",
"                          . M K.{.8.. . 0 -.>.;.:...t . .   f G.^.J.M .                             ",
"                          X 5.$X{.*.. . 0 =.>.-.#. .t .     . %.].$X7.X                             ",
"                          X 7.$XoX&.. . 0 -.>.=.` { t .     . *.oX=X5.X                             ",
"                          . 7.*X&X8.. . 0 -.>.-.#.{ t .     . 8.*X&X7..                             ",
"                          . o.E.Q.%.. . 0 -.>.;.=.` d X     . &.Q.R.$..                             ",
"                            o > , X   . q -.,.=.` ) ) d o .   X , > o                               ",
"                              . .     . % ..=.{ M M o.} - .     . .                                 ",
"                                      . = [ [ } A 2.2.C O .                                         ",
"                                    . < B B V S Z Z 2.C ; .                                         ",
"                                    . c 4.2.B x h l B S l O                                         ",
"                                    . x 3.C z & . & n Z 2.x .                                       ",
"                                    . l 2.A n $ . @ z C 3.c .                                       ",
"                                    . b O.B , . . X u O.O.h .                                       ",
"                                    X ` #.y . .   . 9 #.{ > .                                       ",
"                                  % _ ;.X.y . .   . 9 =. .& .                                       ",
"                                . q =.:.{ y . .   . % ` { : .                                       ",
"                                . o f g a r . .   . X t f : .                                       ",
"                                . . . o o . . .   . . . o . .                                       ",
"                                . . . . . . . .   . . . . . .                                       "
};
